{"title":"Justin Timberlake &amp;ndash; Not a Bad Thing (World Premiere) 2014 ","uid":9798668,"size":94958648,"categoryP":"video","categoryS":"music_videos","magnet":"?xt=urn:btih:3ac2d745f0c359068847b0299a3566184b1327ce&amp;dn=Justin+Timberlake+%26ndash%3B+Not+a+Bad+Thing+%28World+Premiere%29+2014+&amp;tr=udp%3A%2F%2Ftracker.openbittorrent.com%3A80&amp;tr=udp%3A%2F%2Fopen.demonii.com%3A1337&amp;tr=udp%3A%2F%2Ftracker.coppersurfer.tk%3A6969&amp;tr=udp%3A%2F%2Fexodus.desync.com%3A6969","seeders":3,"leechers":0,"uploader":"canc232","files":1,"time":1395352981,"description":"Justin Timberlake Â–- Not a Bad Thing (World Premiere) 2014 720p x264 AAC [GWC]\n\n\nCOVER : &lt;a href=&quot;\nhttp://i.imgur.com/SbsVjag.jpg&quot; rel=&quot;nofollow&quot; target=&quot;_NEW&quot;&gt;\nhttp://i.imgur.com/SbsVjag.jpg&lt;/a&gt;\n\n\nTHUMBNAIL IMAGE : &lt;a href=&quot;\nhttp://img834.imageshack.us/img834/5324/1wyz.jpg&quot; rel=&quot;nofollow&quot; target=&quot;_NEW&quot;&gt;\nhttp://img834.imageshack.us/img834/5324/1wyz.jpg&lt;/a&gt;\n\n\nMEDIA INFO:\nGeneral\nFormat : MPEG-4 \nFormat profile : Base Media \nFile size : 90.6 MiB \nDuration : 5mn 20s \nOverall bit rate mode : Variable \nOverall bit rate : 2 374 Kbps \n\nVideo \nFormat : AVC \nFormat profile : &lt;a class=&quot;__cf_email__&quot; href=&quot;/cdn-cgi/l/email-protection&quot; data-cfemail=&quot;eea6878986aea2dac0de&quot;&gt;[email&amp;#160;protected]&lt;/a&gt;&lt;script cf-hash='f9e31' type=&quot;text/javascript&quot;&gt;\n/* &lt;![CDATA[ */!function(){try{var t=&quot;currentScript&quot;in document?document.currentScript:function(){for(var t=document.getElementsByTagName(&quot;script&quot;),e=t.length;e--;)if(t[e].getAttribute(&quot;cf-hash&quot;))return t[e]}();if(t&amp;&amp;t.previousSibling){var e,r,n,i,c=t.previousSibling,a=c.getAttribute(&quot;data-cfemail&quot;);if(a){for(e=&quot;&quot;,r=parseInt(a.substr(0,2),16),n=2;a.length-n;n+=2)i=parseInt(a.substr(n,2),16)^r,e+=String.fromCharCode(i);e=document.createTextNode(e),c.parentNode.replaceChild(e,c)}}}catch(u){}}();/* ]]&gt; */&lt;/script&gt; \nFormat settings, CABAC : Yes \nFormat settings, ReFrames : 5 frames \nDuration : 5mn 20s \nBit rate : 2 281 Kbps \nWidth : 1 280 pixels \nHeight : 720 pixels \nDisplay aspect ratio : 16:9 \nFrame rate mode : Constant \nFrame rate : 29.970 fps \nStream size : 87.0 MiB (96%) \nTitle : Justin Timberlake Â– Not a Bad Thing (World Premiere) 2014 720p x264 AAC [GWC] \n\nAudio \nFormat : AAC \nFormat profile : LC \nDuration : 5mn 19s \nBit rate mode : Variable \nChannel(s) : 2 channels \nSampling rate : 48.0 KHz \nStream size : 3.40 MiB (4%) \nLanguage : English ","torrent":{"xt":"urn:btih:3ac2d745f0c359068847b0299a3566184b1327ce","amp;dn":"Justin+Timberlake+%26ndash%3B+Not+a+Bad+Thing+%28World+Premiere%29+2014+","amp;tr":["udp%3A%2F%2Ftracker.openbittorrent.com%3A80","udp%3A%2F%2Fopen.demonii.com%3A1337","udp%3A%2F%2Ftracker.coppersurfer.tk%3A6969","udp%3A%2F%2Fexodus.desync.com%3A6969"],"infoHash":"3ac2d745f0c359068847b0299a3566184b1327ce","infoHashBuffer":{"type":"Buffer","data":[58,194,215,69,240,195,89,6,136,71,176,41,154,53,102,24,75,19,39,206]},"announce":[],"urlList":[]}}